<svg xmlns="http://www.w3.org/2000/svg" viewBox="0 0 185.22 192.63"><path d="M259,31.81h60a20,20,0,0,1,20,20v60a20,20,0,0,1-20,20H259a20,20,0,0,1-20-20v-60A20,20,0,0,1,259,31.81Z" transform="translate(-155.75 -28.69)" style="fill:#fff;stroke:#000;stroke-width:3px"/><circle cx="155.28" cy="75.13" r="16" style="fill:#c44646;stroke:#000;stroke-width:3px"/><circle cx="111.28" cy="75.13" r="16" style="fill:#c44646;stroke:#000;stroke-width:3px"/><circle cx="155.28" cy="31.13" r="16" style="fill:#c44646;stroke:#000;stroke-width:3px"/><circle cx="111.28" cy="31.13" r="16" style="fill:#c44646;stroke:#000;stroke-width:3px"/><path d="M177.25,118.19h60a20,20,0,0,1,20,20v60a20,20,0,0,1-20,20h-60a20,20,0,0,1-20-20v-60A20,20,0,0,1,177.25,118.19Z" transform="translate(-155.75 -28.69)" style="fill:#fff;stroke:#000;stroke-width:3px"/><circle cx="73.5" cy="161.5" r="16" style="fill:#c44646;stroke:#000;stroke-width:3px"/><circle cx="29.5" cy="161.5" r="16" style="fill:#c44646;stroke:#000;stroke-width:3px"/><circle cx="73.5" cy="117.5" r="16" style="fill:#c44646;stroke:#000;stroke-width:3px"/><circle cx="29.5" cy="117.5" r="16" style="fill:#c44646;stroke:#000;stroke-width:3px"/><path d="M177.25,30.19h60a20,20,0,0,1,20,20v60a20,20,0,0,1-20,20h-60a20,20,0,0,1-20-20v-60A20,20,0,0,1,177.25,30.19Z" transform="translate(-155.75 -28.69)" style="fill:#fff;stroke:#000;stroke-width:3px"/><circle cx="73.5" cy="73.5" r="16" style="fill:#c44646;stroke:#000;stroke-width:3px"/><circle cx="29.5" cy="73.5" r="16" style="fill:#c44646;stroke:#000;stroke-width:3px"/><circle cx="73.5" cy="29.5" r="16" style="fill:#c44646;stroke:#000;stroke-width:3px"/><circle cx="29.5" cy="29.5" r="16" style="fill:#c44646;stroke:#000;stroke-width:3px"/><path d="M259.47,119.81h60a20,20,0,0,1,20,20v60a20,20,0,0,1-20,20h-60a20,20,0,0,1-20-20v-60A20,20,0,0,1,259.47,119.81Z" transform="translate(-155.75 -28.69)" style="fill:#fff;stroke:#000;stroke-width:3px"/><circle cx="155.72" cy="163.13" r="16" style="fill:#c44646;stroke:#000;stroke-width:3px"/><circle cx="111.72" cy="163.13" r="16" style="fill:#c44646;stroke:#000;stroke-width:3px"/><circle cx="155.72" cy="119.13" r="16" style="fill:#c44646;stroke:#000;stroke-width:3px"/><circle cx="111.72" cy="119.13" r="16" style="fill:#c44646;stroke:#000;stroke-width:3px"/><path d="M221.25,74.19h60a20,20,0,0,1,20,20v60a20,20,0,0,1-20,20h-60a20,20,0,0,1-20-20v-60A20,20,0,0,1,221.25,74.19Z" transform="translate(-155.75 -28.69)" style="fill:#fff;stroke:#000;stroke-width:3px"/><circle cx="117.5" cy="117.5" r="16" style="fill:#c44646;stroke:#000;stroke-width:3px"/><circle cx="73.5" cy="117.5" r="16" style="fill:#c44646;stroke:#000;stroke-width:3px"/><circle cx="117.5" cy="73.5" r="16" style="fill:#c44646;stroke:#000;stroke-width:3px"/><circle cx="73.5" cy="73.5" r="16" style="fill:#c44646;stroke:#000;stroke-width:3px"/></svg>