<svg xmlns="http://www.w3.org/2000/svg" viewBox="0 0 244.3 244.3"><path d="M34,68,68,34A16,16,0,0,1,90.6,34l33.94,34a16,16,0,0,1,0,22.62L90.6,124.54a16,16,0,0,1-22.62,0L34,90.6A16,16,0,0,1,34,68Z" transform="translate(-27.85 -27.85)" style="fill:#fff;stroke:#000;stroke-width:3px"/><circle cx="76.33" cy="51.44" r="12.8" style="fill:#c44646;stroke:#000;stroke-width:3px"/><circle cx="51.44" cy="76.33" r="12.8" style="fill:#c44646;stroke:#000;stroke-width:3px"/><circle cx="51.44" cy="26.55" r="12.8" style="fill:#c44646;stroke:#000;stroke-width:3px"/><circle cx="26.55" cy="51.44" r="12.8" style="fill:#c44646;stroke:#000;stroke-width:3px"/><path d="M34,209.4l34-33.94a16,16,0,0,1,22.62,0l33.94,33.94a16,16,0,0,1,0,22.62L90.6,266A16,16,0,0,1,68,266L34,232A16,16,0,0,1,34,209.4Z" transform="translate(-27.85 -27.85)" style="fill:#fff;stroke:#000;stroke-width:3px"/><circle cx="76.33" cy="192.86" r="12.8" style="fill:#c44646;stroke:#000;stroke-width:3px"/><circle cx="51.44" cy="217.75" r="12.8" style="fill:#c44646;stroke:#000;stroke-width:3px"/><circle cx="51.44" cy="167.97" r="12.8" style="fill:#c44646;stroke:#000;stroke-width:3px"/><circle cx="26.55" cy="192.86" r="12.8" style="fill:#c44646;stroke:#000;stroke-width:3px"/><path d="M175.46,209.4l33.94-33.94a16,16,0,0,1,22.62,0l34,33.94A16,16,0,0,1,266,232l-34,34a16,16,0,0,1-22.62,0l-33.94-34A16,16,0,0,1,175.46,209.4Z" transform="translate(-27.85 -27.85)" style="fill:#fff;stroke:#000;stroke-width:3px"/><circle cx="217.75" cy="192.86" r="12.8" style="fill:#c44646;stroke:#000;stroke-width:3px"/><circle cx="192.86" cy="217.75" r="12.8" style="fill:#c44646;stroke:#000;stroke-width:3px"/><circle cx="192.86" cy="167.97" r="12.8" style="fill:#c44646;stroke:#000;stroke-width:3px"/><circle cx="167.97" cy="192.86" r="12.8" style="fill:#c44646;stroke:#000;stroke-width:3px"/><path d="M175.46,68,209.4,34A16,16,0,0,1,232,34l34,34a16,16,0,0,1,0,22.62l-34,33.94a16,16,0,0,1-22.62,0L175.46,90.6A16,16,0,0,1,175.46,68Z" transform="translate(-27.85 -27.85)" style="fill:#fff;stroke:#000;stroke-width:3px"/><circle cx="217.75" cy="51.44" r="12.8" style="fill:#c44646;stroke:#000;stroke-width:3px"/><circle cx="192.86" cy="76.33" r="12.8" style="fill:#c44646;stroke:#000;stroke-width:3px"/><circle cx="192.86" cy="26.55" r="12.8" style="fill:#c44646;stroke:#000;stroke-width:3px"/><circle cx="167.97" cy="51.44" r="12.8" style="fill:#c44646;stroke:#000;stroke-width:3px"/><path d="M90,186V114a24,24,0,0,1,24-24h72a24,24,0,0,1,24,24v72a24,24,0,0,1-24,24H114A24,24,0,0,1,90,186Z" transform="translate(-27.85 -27.85)" style="fill:#fff;stroke:#000;stroke-width:4px"/><path d="M82.12,133,133,82.12a24,24,0,0,1,33.94,0L217.88,133a24,24,0,0,1,0,33.94L167,217.88a24,24,0,0,1-33.94,0L82.12,167A24,24,0,0,1,82.12,133Z" transform="translate(-27.85 -27.85)" style="fill:#fff;stroke:#000;stroke-width:4px"/><circle cx="159.48" cy="122.15" r="19.2" style="fill:#c44646;stroke:#000;stroke-width:4px"/><circle cx="122.15" cy="159.48" r="19.2" style="fill:#c44646;stroke:#000;stroke-width:4px"/><circle cx="122.15" cy="84.81" r="19.2" style="fill:#c44646;stroke:#000;stroke-width:4px"/><circle cx="84.81" cy="122.15" r="19.2" style="fill:#c44646;stroke:#000;stroke-width:4px"/><path d="M110,174V126a16,16,0,0,1,16-16h48a16,16,0,0,1,16,16v48a16,16,0,0,1-16,16H126A16,16,0,0,1,110,174Z" transform="translate(-27.85 -27.85)" style="fill:#fff;stroke:#000;stroke-width:3px"/><circle cx="139.75" cy="104.55" r="12.8" style="fill:#c44646;stroke:#000;stroke-width:3px"/><circle cx="139.75" cy="139.75" r="12.8" style="fill:#c44646;stroke:#000;stroke-width:3px"/><circle cx="104.55" cy="104.55" r="12.8" style="fill:#c44646;stroke:#000;stroke-width:3px"/><circle cx="104.55" cy="139.75" r="12.8" style="fill:#c44646;stroke:#000;stroke-width:3px"/></svg>