<svg xmlns="http://www.w3.org/2000/svg" viewBox="0 0 193.01 250.5"><path d="M250.6,2h55.8A18.6,18.6,0,0,1,325,20.6V76.4A18.6,18.6,0,0,1,306.4,95H250.6A18.6,18.6,0,0,1,232,76.4V20.6A18.6,18.6,0,0,1,250.6,2Z" transform="translate(-183.5)" style="fill:#fff;stroke:#000;stroke-width:4px"/><circle cx="115.46" cy="68.96" r="14.88" style="fill:#5b5858;stroke:#000;stroke-width:4px"/><circle cx="74.54" cy="28.04" r="14.88" style="fill:#5b5858;stroke:#000;stroke-width:4px"/><path d="M300.11,97h55.8a18.61,18.61,0,0,1,18.6,18.6v55.8a18.61,18.61,0,0,1-18.6,18.6h-55.8a18.6,18.6,0,0,1-18.6-18.6V115.6A18.6,18.6,0,0,1,300.11,97Z" transform="translate(-183.5)" style="fill:#fff;stroke:#000;stroke-width:4px"/><circle cx="164.97" cy="163.96" r="14.88" style="fill:#5b5858;stroke:#000;stroke-width:4px"/><circle cx="124.05" cy="123.04" r="14.88" style="fill:#5b5858;stroke:#000;stroke-width:4px"/><path d="M204.1,155h55.8a18.6,18.6,0,0,1,18.6,18.6v55.8A18.6,18.6,0,0,1,259.9,248H204.1a18.6,18.6,0,0,1-18.6-18.6V173.6A18.6,18.6,0,0,1,204.1,155Z" transform="translate(-183.5)" style="fill:#fff;stroke:#000;stroke-width:4px"/><circle cx="68.96" cy="221.96" r="14.88" style="fill:#5b5858;stroke:#000;stroke-width:4px"/><circle cx="28.04" cy="181.04" r="14.88" style="fill:#5b5858;stroke:#000;stroke-width:4px"/><path d="M220.78,97h33.6a11.21,11.21,0,0,1,11.2,11.2v33.6a11.21,11.21,0,0,1-11.2,11.2h-33.6a11.21,11.21,0,0,1-11.2-11.2V108.2A11.21,11.21,0,0,1,220.78,97Z" transform="translate(-183.5)" style="fill:#fff;stroke:#000;stroke-width:3px"/><circle cx="66.4" cy="137.32" r="8.96" style="fill:#5b5858;stroke:#000;stroke-width:3px"/><circle cx="41.76" cy="112.68" r="8.96" style="fill:#5b5858;stroke:#000;stroke-width:3px"/><path d="M305.63,193h33.6a11.21,11.21,0,0,1,11.2,11.2v33.6a11.21,11.21,0,0,1-11.2,11.2h-33.6a11.2,11.2,0,0,1-11.2-11.2V204.2A11.2,11.2,0,0,1,305.63,193Z" transform="translate(-183.5)" style="fill:#fff;stroke:#000;stroke-width:3px"/><circle cx="151.25" cy="233.32" r="8.96" style="fill:#5b5858;stroke:#000;stroke-width:3px"/><circle cx="126.61" cy="208.68" r="8.96" style="fill:#5b5858;stroke:#000;stroke-width:3px"/></svg>