<svg xmlns="http://www.w3.org/2000/svg" viewBox="0 0 250 250"><path d="M100,2h48a16,16,0,0,1,16,16V66a16,16,0,0,1-16,16H100A16,16,0,0,1,84,66V18A16,16,0,0,1,100,2Z" style="fill:#fff;stroke:#000;stroke-width:4px"/><circle cx="141.6" cy="59.6" r="12.8" style="fill:#5b5858;stroke:#000;stroke-width:4px"/><circle cx="106.4" cy="24.4" r="12.8" style="fill:#5b5858;stroke:#000;stroke-width:4px"/><path d="M100,168h48a16,16,0,0,1,16,16v48a16,16,0,0,1-16,16H100a16,16,0,0,1-16-16V184A16,16,0,0,1,100,168Z" style="fill:#fff;stroke:#000;stroke-width:4px"/><circle cx="141.6" cy="225.6" r="12.8" style="fill:#5b5858;stroke:#000;stroke-width:4px"/><circle cx="106.4" cy="190.4" r="12.8" style="fill:#5b5858;stroke:#000;stroke-width:4px"/><path d="M184,43h48a16,16,0,0,1,16,16v48a16,16,0,0,1-16,16H184a16,16,0,0,1-16-16V59A16,16,0,0,1,184,43Z" style="fill:#fff;stroke:#000;stroke-width:4px"/><circle cx="225.6" cy="100.6" r="12.8" style="fill:#5b5858;stroke:#000;stroke-width:4px"/><circle cx="190.4" cy="65.4" r="12.8" style="fill:#5b5858;stroke:#000;stroke-width:4px"/><path d="M184,127h48a16,16,0,0,1,16,16v48a16,16,0,0,1-16,16H184a16,16,0,0,1-16-16V143A16,16,0,0,1,184,127Z" style="fill:#fff;stroke:#000;stroke-width:4px"/><circle cx="225.6" cy="184.6" r="12.8" style="fill:#5b5858;stroke:#000;stroke-width:4px"/><circle cx="190.4" cy="149.4" r="12.8" style="fill:#5b5858;stroke:#000;stroke-width:4px"/><path d="M18,127H66a16,16,0,0,1,16,16v48a16,16,0,0,1-16,16H18A16,16,0,0,1,2,191V143A16,16,0,0,1,18,127Z" style="fill:#fff;stroke:#000;stroke-width:4px"/><circle cx="59.6" cy="184.6" r="12.8" style="fill:#5b5858;stroke:#000;stroke-width:4px"/><circle cx="24.4" cy="149.4" r="12.8" style="fill:#5b5858;stroke:#000;stroke-width:4px"/><path d="M18,43H66A16,16,0,0,1,82,59v48a16,16,0,0,1-16,16H18A16,16,0,0,1,2,107V59A16,16,0,0,1,18,43Z" style="fill:#fff;stroke:#000;stroke-width:4px"/><circle cx="59.6" cy="100.6" r="12.8" style="fill:#5b5858;stroke:#000;stroke-width:4px"/><circle cx="24.4" cy="65.4" r="12.8" style="fill:#5b5858;stroke:#000;stroke-width:4px"/></svg>