<svg xmlns="http://www.w3.org/2000/svg" xmlns:xlink="http://www.w3.org/1999/xlink" width="185" height="185" viewBox="0 0 185 185" fill="none"><defs><rect id="path_0" x="0" y="0" width="71.28" height="71.28" /></defs><g opacity="1" transform="translate(2.5 2.5)  rotate(0 90 90)"><g opacity="1" transform="translate(0 0)  rotate(0 90 90)"><path id="svg_1" fill-rule="evenodd" style="fill:#FFFFFF" transform="translate(0 0)  rotate(0 90 90)" opacity="1" d="M36,180L144,180C163.88,180 180,163.88 180,144L180,36C180,16.12 163.88,0 144,0L36,0C16.12,0 0,16.12 0,36L0,144C0,163.88 16.12,180 36,180Z " /><path  id="svg_1" style="stroke:#000000; stroke-width:5; stroke-opacity:1; stroke-dasharray:0 0" transform="translate(0 0)  rotate(0 90 90)" d="M36,180L144,180C163.88,180 180,163.88 180,144L180,36C180,16.12 163.88,0 144,0L36,0C16.12,0 0,16.12 0,36L0,144C0,163.88 16.12,180 36,180Z " /></g><g opacity="1" transform="translate(54 54)  rotate(0 35.64 35.64)"><mask id="bg-mask-0" fill="white"><use xlink:href="#path_0"></use></mask><g mask="url(#bg-mask-0)" ><g opacity="1" transform="translate(23.759999976796877 29.700000023203106)  rotate(0 11.880000023203124 2.969999988398445)"><path id="路径 1" fill-rule="evenodd" style="fill:#000000" transform="translate(0 0)  rotate(0 2.9700000232031263 2.969999988398445)" opacity="1" d="M5.05,0.83C4.49,0.28 3.8,0 2.97,0C2.14,0 1.43,0.28 0.83,0.83C0.28,1.43 0,2.14 0,2.97C0,3.8 0.28,4.49 0.83,5.05C1.43,5.64 2.14,5.94 2.97,5.94C3.8,5.94 4.49,5.64 5.05,5.05C5.64,4.49 5.94,3.8 5.94,2.97C5.94,2.14 5.64,1.43 5.05,0.83Z " /><path id="路径 2" fill-rule="evenodd" style="fill:#000000" transform="translate(17.819999999999997 0)  rotate(0 2.9700000232031263 2.969999988398445)" opacity="1" d="M5.05,5.05C5.64,4.49 5.94,3.8 5.94,2.97C5.94,2.14 5.64,1.43 5.05,0.83C4.49,0.28 3.8,0 2.97,0C2.14,0 1.43,0.28 0.83,0.83C0.28,1.43 0,2.14 0,2.97C0,3.8 0.28,4.49 0.83,5.05C1.43,5.64 2.14,5.94 2.97,5.94C3.8,5.94 4.49,5.64 5.05,5.05Z " /></g><path id="分组 2" fill-rule="evenodd" style="fill:#000000" transform="translate(4.752000023203124 4.752000023203124)  rotate(0 30.887999976796877 30.887999976796877)" opacity="1" d="M52.69 52.7C58.72 46.71 61.78 39.38 61.78 30.89C61.78 22.4 58.72 15.05 52.7 9.02C46.71 3.04 39.37 0 30.89 0C22.4 0 15.05 3.03 9.02 9.02C3.03 15.05 0 22.41 0 30.89C0 39.37 3.04 46.71 9.02 52.7C15.05 58.72 22.4 61.78 30.89 61.78C39.38 61.78 46.71 58.72 52.69 52.7Z M10.696 10.706C5.176 16.266 2.376 23.056 2.376 30.886C2.376 38.716 5.176 45.486 10.696 51.016C16.266 56.576 23.056 59.396 30.886 59.396C38.716 59.396 45.486 56.576 51.016 51.016C56.576 45.486 59.396 38.716 59.396 30.886C59.396 23.056 56.576 16.266 51.016 10.696C45.496 5.176 38.716 2.376 30.886 2.376C23.056 2.376 16.266 5.176 10.696 10.706Z M42.69 30.87C43.52 30.09 43.96 29.07 43.96 27.92C43.97 26.8 43.52 25.72 42.72 24.94C41.94 24.16 40.95 23.76 39.8 23.76C38.66 23.76 37.67 24.15 36.79 24.97C36.03 25.79 35.64 26.78 35.64 27.92C35.64 29.07 36.04 30.06 36.82 30.84C37.6 31.64 38.68 32.09 39.8 32.08C40.95 32.08 41.97 31.64 42.69 30.87Z M38.476 26.646C38.176 26.966 38.016 27.386 38.016 27.916C38.016 28.436 38.166 28.826 38.496 29.156C38.866 29.526 39.286 29.696 39.796 29.696C40.306 29.696 40.676 29.546 41.006 29.186C41.416 28.796 41.576 28.426 41.576 27.916C41.576 27.406 41.406 26.986 41.036 26.616C40.706 26.286 40.316 26.136 39.796 26.136C39.266 26.136 38.846 26.296 38.476 26.646Z M24.87 30.87C25.7 30.09 26.14 29.07 26.14 27.92C26.15 26.8 25.7 25.72 24.9 24.94C24.12 24.16 23.13 23.76 21.98 23.76C20.84 23.76 19.85 24.15 18.97 24.97C18.21 25.79 17.82 26.78 17.82 27.92C17.82 29.07 18.22 30.06 19 30.84C19.78 31.64 20.86 32.09 21.98 32.08C23.13 32.08 24.15 31.64 24.87 30.87Z M20.656 26.646C20.356 26.966 20.196 27.386 20.196 27.916C20.196 28.436 20.346 28.826 20.676 29.156C21.046 29.526 21.466 29.696 21.976 29.696C22.486 29.696 22.856 29.546 23.186 29.186C23.606 28.796 23.756 28.426 23.756 27.916C23.766 27.426 23.576 26.956 23.216 26.616C22.886 26.286 22.496 26.136 21.976 26.136C21.446 26.136 21.026 26.296 20.656 26.646Z " /><g opacity="1" transform="translate(22.569380238183854 16.63212160806742)  rotate(0 13.070044328562219 19.007939207567862)"><path id="路径 9" fill-rule="evenodd" style="fill:#000000" transform="translate(6.6554197348673245 35.639878368729455)  rotate(0 3.8313000269488167 1.1880000232031327)" opacity="1" d="M7.5,1.78C7.72,1.41 7.72,0.96 7.5,0.59C7.29,0.23 6.9,0 6.47,0L1.19,0C0.76,0 0.37,0.23 0.16,0.59C-0.05,0.96 -0.05,1.41 0.16,1.78C0.37,2.15 0.76,2.38 1.19,2.38L6.47,2.38C6.9,2.38 7.29,2.15 7.5,1.78Z " /><path id="路径 10" fill-rule="evenodd" style="fill:#000000" transform="translate(17.822772120978314 0.000030739490312821084)  rotate(0 4.1586582680730615 4.157925284256765)" opacity="1" d="M8.23,7.58C8.41,7.14 8.31,6.63 7.97,6.29L2.03,0.35C1.73,0.05 1.29,-0.07 0.88,0.04C0.47,0.15 0.15,0.47 0.04,0.88C-0.07,1.29 0.05,1.73 0.35,2.03L6.29,7.97C6.51,8.19 6.81,8.32 7.13,8.32C7.61,8.32 8.04,8.03 8.23,7.58Z " /><path id="路径 11" fill-rule="evenodd" style="fill:#000000" transform="translate(0 0)  rotate(0 4.158655076874365 3.7124421803424847)" opacity="1" d="M1.96,7.14L7.9,2.09C8.4,1.67 8.46,0.92 8.03,0.42C7.61,-0.08 6.86,-0.14 6.36,0.28L0.42,5.33C0.04,5.65 -0.1,6.18 0.07,6.65C0.25,7.12 0.69,7.43 1.19,7.42C1.47,7.43 1.75,7.32 1.96,7.14Z " /></g></g></g></g></svg>