<svg xmlns="http://www.w3.org/2000/svg" viewBox="0 0 304 254"><path d="M18,146H66a16,16,0,0,1,16,16v48a16,16,0,0,1-16,16H18A16,16,0,0,1,2,210V162A16,16,0,0,1,18,146Z" transform="translate(0 2)" style="fill:#fff;stroke:#000;stroke-width:4px"/><circle cx="42" cy="188" r="15.84" style="fill:#c44646;stroke:#000;stroke-width:4px"/><path d="M286,104H238a16,16,0,0,1-16-16V40a16,16,0,0,1,16-16h48a16,16,0,0,1,16,16V88A16,16,0,0,1,286,104Z" transform="translate(0 2)" style="fill:#fff;stroke:#000;stroke-width:4px"/><circle cx="262" cy="66" r="15.84" style="fill:#c44646;stroke:#000;stroke-width:4px"/><path d="M60,107h48a16,16,0,0,1,16,16v48a16,16,0,0,1-16,16H60a16,16,0,0,1-16-16V123A16,16,0,0,1,60,107Z" transform="translate(0 2)" style="fill:#fff;stroke:#000;stroke-width:3px"/><circle cx="84" cy="149" r="15.84" style="fill:#c44646;stroke:#000;stroke-width:3px"/><path d="M124,250H76a16,16,0,0,1-16-16V186a16,16,0,0,1,16-16h48a16,16,0,0,1,16,16v48A16,16,0,0,1,124,250Z" transform="translate(0 2)" style="fill:#fff;stroke:#000;stroke-width:4px"/><circle cx="100" cy="212" r="15.84" style="fill:#c44646;stroke:#000;stroke-width:4px"/><path d="M244,143H196a16,16,0,0,1-16-16V79a16,16,0,0,1,16-16h48a16,16,0,0,1,16,16v48A16,16,0,0,1,244,143Z" transform="translate(0 2)" style="fill:#fff;stroke:#000;stroke-width:3px"/><circle cx="220" cy="105" r="15.84" style="fill:#c44646;stroke:#000;stroke-width:3px"/><path d="M180,0h48a16,16,0,0,1,16,16V64a16,16,0,0,1-16,16H180a16,16,0,0,1-16-16V16A16,16,0,0,1,180,0Z" transform="translate(0 2)" style="fill:#fff;stroke:#000;stroke-width:4px"/><circle cx="204" cy="42" r="15.84" style="fill:#c44646;stroke:#000;stroke-width:4px"/></svg>