<svg xmlns="http://www.w3.org/2000/svg" viewBox="0 0 257.49 248.85"><path d="M167.12,38h36.69a12.24,12.24,0,0,1,12.24,12.23v36.7a12.24,12.24,0,0,1-12.24,12.23H167.12a12.24,12.24,0,0,1-12.23-12.23V50.18A12.24,12.24,0,0,1,167.12,38Z" transform="translate(-148.9 -0.57)" style="fill:#fff;stroke:#000;stroke-width:3px"/><circle cx="36.56" cy="67.96" r="12.11" style="fill:#c44646;stroke:#000;stroke-width:3px"/><path d="M209.52,2.07h48.93a16.32,16.32,0,0,1,16.31,16.31V67.31a16.32,16.32,0,0,1-16.31,16.31H209.52a16.32,16.32,0,0,1-16.31-16.31V18.38A16.32,16.32,0,0,1,209.52,2.07Z" transform="translate(-148.9 -0.57)" style="fill:#fff;stroke:#000;stroke-width:3px"/><circle cx="103.02" cy="60.21" r="13.05" style="fill:#5b5858;stroke:#000;stroke-width:3px"/><circle cx="67.14" cy="24.33" r="13.05" style="fill:#5b5858;stroke:#000;stroke-width:3px"/><path d="M282,17.58h91.74a30.58,30.58,0,0,1,30.57,30.58v91.73a30.58,30.58,0,0,1-30.57,30.58H282a30.59,30.59,0,0,1-30.58-30.58V48.16A30.59,30.59,0,0,1,282,17.58Z" transform="translate(-148.9 -0.57)" style="fill:#fff;stroke:#000;stroke-width:3px"/><circle cx="212.57" cy="127.09" r="18.35" style="fill:#5b5858;stroke:#000;stroke-width:3px"/><circle cx="145.3" cy="59.82" r="18.35" style="fill:#5b5858;stroke:#000;stroke-width:3px"/><circle cx="178.93" cy="93.45" r="18.35" style="fill:#5b5858;stroke:#000;stroke-width:3px"/><path d="M356,153.35h36.69a12.24,12.24,0,0,1,12.24,12.23v36.69a12.24,12.24,0,0,1-12.24,12.24H356a12.24,12.24,0,0,1-12.23-12.24V165.58A12.24,12.24,0,0,1,356,153.35Z" transform="translate(-148.9 -0.57)" style="fill:#fff;stroke:#000;stroke-width:3px"/><circle cx="238.87" cy="196.81" r="9.79" style="fill:#c44646;stroke:#000;stroke-width:3px"/><circle cx="211.96" cy="196.81" r="9.79" style="fill:#c44646;stroke:#000;stroke-width:3px"/><circle cx="238.87" cy="169.9" r="9.79" style="fill:#c44646;stroke:#000;stroke-width:3px"/><circle cx="211.96" cy="169.9" r="9.79" style="fill:#c44646;stroke:#000;stroke-width:3px"/><path d="M295.22,166.38h48.93a16.32,16.32,0,0,1,16.31,16.31v48.93a16.32,16.32,0,0,1-16.31,16.31H295.22a16.32,16.32,0,0,1-16.31-16.31V182.69A16.32,16.32,0,0,1,295.22,166.38Z" transform="translate(-148.9 -0.57)" style="fill:#fff;stroke:#000;stroke-width:3px"/><circle cx="188.72" cy="224.52" r="9.79" style="fill:#5b5858;stroke:#000;stroke-width:3px"/><circle cx="152.84" cy="188.64" r="9.79" style="fill:#5b5858;stroke:#000;stroke-width:3px"/><circle cx="170.78" cy="206.58" r="9.79" style="fill:#5b5858;stroke:#000;stroke-width:3px"/><circle cx="152.84" cy="224.52" r="9.79" style="fill:#5b5858;stroke:#000;stroke-width:3px"/><circle cx="188.72" cy="188.64" r="9.79" style="fill:#5b5858;stroke:#000;stroke-width:3px"/><path d="M181,76.9h91.74a30.59,30.59,0,0,1,30.58,30.58v91.74a30.59,30.59,0,0,1-30.58,30.58H181a30.59,30.59,0,0,1-30.58-30.58V107.48A30.59,30.59,0,0,1,181,76.9Z" transform="translate(-148.9 -0.57)" style="fill:#fff;stroke:#000;stroke-width:3px"/><circle cx="111.58" cy="198.64" r="18.35" style="fill:#5b5858;stroke:#000;stroke-width:3px"/><circle cx="44.31" cy="106.91" r="18.35" style="fill:#5b5858;stroke:#000;stroke-width:3px"/><circle cx="111.58" cy="152.77" r="18.35" style="fill:#5b5858;stroke:#000;stroke-width:3px"/><circle cx="44.31" cy="198.64" r="18.35" style="fill:#5b5858;stroke:#000;stroke-width:3px"/><circle cx="111.58" cy="106.91" r="18.35" style="fill:#5b5858;stroke:#000;stroke-width:3px"/><circle cx="44.31" cy="152.77" r="18.35" style="fill:#5b5858;stroke:#000;stroke-width:3px"/></svg>