<svg xmlns="http://www.w3.org/2000/svg" viewBox="0 0 286.83 250"><path d="M390.43,113.53h80.68A26.91,26.91,0,0,1,498,140.43v80.68A26.9,26.9,0,0,1,471.11,248H390.43a26.91,26.91,0,0,1-26.9-26.89V140.43A26.91,26.91,0,0,1,390.43,113.53Z" transform="translate(-213.17 0)" style="fill:#fff;stroke:#000;stroke-width:4px"/><circle cx="247.18" cy="210.35" r="21.51" style="fill:#c44646;stroke:#000;stroke-width:4px"/><circle cx="188.01" cy="210.35" r="21.51" style="fill:#c44646;stroke:#000;stroke-width:4px"/><circle cx="247.18" cy="151.18" r="21.51" style="fill:#c44646;stroke:#000;stroke-width:4px"/><circle cx="188.01" cy="151.18" r="21.51" style="fill:#c44646;stroke:#000;stroke-width:4px"/><path d="M228.21,47.4,297.37,5.84a26.91,26.91,0,0,1,36.9,9.2L375.83,84.2a26.9,26.9,0,0,1-9.21,36.9l-69.15,41.56a26.92,26.92,0,0,1-36.91-9.2L219,84.3A26.9,26.9,0,0,1,228.21,47.4Z" transform="translate(-213.17 0)" style="fill:#fff;stroke:#000;stroke-width:4px"/><circle cx="124.84" cy="94.37" r="21.51" style="fill:#c44646;stroke:#000;stroke-width:4px"/><circle cx="74.13" cy="124.84" r="21.51" style="fill:#c44646;stroke:#000;stroke-width:4px"/><circle cx="94.37" cy="43.66" r="21.51" style="fill:#c44646;stroke:#000;stroke-width:4px"/><circle cx="43.66" cy="74.13" r="21.51" style="fill:#c44646;stroke:#000;stroke-width:4px"/></svg>