<svg xmlns="http://www.w3.org/2000/svg" viewBox="0 0 253 235"><path d="M136,2h48a16,16,0,0,1,16,16V66a16,16,0,0,1-16,16H136a16,16,0,0,1-16-16V18A16,16,0,0,1,136,2Z" transform="translate(-118.5 -0.5)" style="fill:#fff;stroke:#000;stroke-width:3px"/><circle cx="59.1" cy="59.1" r="12.8" style="fill:#c44646;stroke:#000;stroke-width:3px"/><circle cx="23.9" cy="59.1" r="12.8" style="fill:#c44646;stroke:#000;stroke-width:3px"/><circle cx="59.1" cy="23.9" r="12.8" style="fill:#c44646;stroke:#000;stroke-width:3px"/><circle cx="23.9" cy="23.9" r="12.8" style="fill:#c44646;stroke:#000;stroke-width:3px"/><path d="M136,84h48a16,16,0,0,1,16,16v48a16,16,0,0,1-16,16H136a16,16,0,0,1-16-16V100A16,16,0,0,1,136,84Z" transform="translate(-118.5 -0.5)" style="fill:#fff;stroke:#000;stroke-width:3px"/><circle cx="59.1" cy="141.1" r="12.8" style="fill:#c44646;stroke:#000;stroke-width:3px"/><circle cx="23.9" cy="141.1" r="12.8" style="fill:#c44646;stroke:#000;stroke-width:3px"/><circle cx="59.1" cy="105.9" r="12.8" style="fill:#c44646;stroke:#000;stroke-width:3px"/><circle cx="23.9" cy="105.9" r="12.8" style="fill:#c44646;stroke:#000;stroke-width:3px"/><path d="M306,2h48a16,16,0,0,1,16,16V66a16,16,0,0,1-16,16H306a16,16,0,0,1-16-16V18A16,16,0,0,1,306,2Z" transform="translate(-118.5 -0.5)" style="fill:#fff;stroke:#000;stroke-width:3px"/><circle cx="229.1" cy="59.1" r="12.8" style="fill:#c44646;stroke:#000;stroke-width:3px"/><circle cx="193.9" cy="59.1" r="12.8" style="fill:#c44646;stroke:#000;stroke-width:3px"/><circle cx="229.1" cy="23.9" r="12.8" style="fill:#c44646;stroke:#000;stroke-width:3px"/><circle cx="193.9" cy="23.9" r="12.8" style="fill:#c44646;stroke:#000;stroke-width:3px"/><path d="M306,84h48a16,16,0,0,1,16,16v48a16,16,0,0,1-16,16H306a16,16,0,0,1-16-16V100A16,16,0,0,1,306,84Z" transform="translate(-118.5 -0.5)" style="fill:#fff;stroke:#000;stroke-width:3px"/><circle cx="229.1" cy="141.1" r="12.8" style="fill:#c44646;stroke:#000;stroke-width:3px"/><circle cx="193.9" cy="141.1" r="12.8" style="fill:#c44646;stroke:#000;stroke-width:3px"/><circle cx="229.1" cy="105.9" r="12.8" style="fill:#c44646;stroke:#000;stroke-width:3px"/><circle cx="193.9" cy="105.9" r="12.8" style="fill:#c44646;stroke:#000;stroke-width:3px"/><path d="M209,68h72a24,24,0,0,1,24,24v72a24,24,0,0,1-24,24H209a24,24,0,0,1-24-24V92A24,24,0,0,1,209,68Z" transform="translate(-118.5 -0.5)" style="fill:#fff;stroke:#000;stroke-width:4px"/><circle cx="152.9" cy="153.9" r="19.2" style="fill:#c44646;stroke:#000;stroke-width:4px"/><circle cx="100.1" cy="153.9" r="19.2" style="fill:#c44646;stroke:#000;stroke-width:4px"/><circle cx="152.9" cy="101.1" r="19.2" style="fill:#c44646;stroke:#000;stroke-width:4px"/><circle cx="100.1" cy="101.1" r="19.2" style="fill:#c44646;stroke:#000;stroke-width:4px"/><path d="M261,154h48a16,16,0,0,1,16,16v48a16,16,0,0,1-16,16H261a16,16,0,0,1-16-16V170A16,16,0,0,1,261,154Z" transform="translate(-118.5 -0.5)" style="fill:#fff;stroke:#000;stroke-width:3px"/><circle cx="166.5" cy="193.5" r="15.84" style="fill:#c44646;stroke:#000;stroke-width:3px"/><path d="M181,154h48a16,16,0,0,1,16,16v48a16,16,0,0,1-16,16H181a16,16,0,0,1-16-16V170A16,16,0,0,1,181,154Z" transform="translate(-118.5 -0.5)" style="fill:#fff;stroke:#000;stroke-width:3px"/><circle cx="86.5" cy="193.5" r="15.84" style="fill:#c44646;stroke:#000;stroke-width:3px"/></svg>