<svg xmlns="http://www.w3.org/2000/svg" viewBox="0 0 284.17 249.91"><path d="M299.44,2.09h72a24,24,0,0,1,24,24v72a24,24,0,0,1-24,24h-72a24,24,0,0,1-24-24v-72A24,24,0,0,1,299.44,2.09Z" transform="translate(-215.83 -0.09)" style="fill:#fff;stroke:#000;stroke-width:4px"/><circle cx="146.01" cy="88.4" r="19.2" style="fill:#c44646;stroke:#000;stroke-width:4px"/><circle cx="93.21" cy="88.4" r="19.2" style="fill:#c44646;stroke:#000;stroke-width:4px"/><circle cx="146.01" cy="35.6" r="19.2" style="fill:#c44646;stroke:#000;stroke-width:4px"/><circle cx="93.21" cy="35.6" r="19.2" style="fill:#c44646;stroke:#000;stroke-width:4px"/><path d="M242.83,123h75a25,25,0,0,1,25,25v75a25,25,0,0,1-25,25h-75a25,25,0,0,1-25-25V148A25,25,0,0,1,242.83,123Z" transform="translate(-215.83 -0.09)" style="fill:#fff;stroke:#000;stroke-width:4px"/><circle cx="92" cy="212.91" r="20" style="fill:#c44646;stroke:#000;stroke-width:4px"/><circle cx="37" cy="212.91" r="20" style="fill:#c44646;stroke:#000;stroke-width:4px"/><circle cx="92" cy="157.91" r="20" style="fill:#c44646;stroke:#000;stroke-width:4px"/><circle cx="37" cy="157.91" r="20" style="fill:#c44646;stroke:#000;stroke-width:4px"/><path d="M356.4,138.19,420,98.44a25,25,0,0,1,34.45,8L494.2,170a25,25,0,0,1-8,34.45l-63.6,39.74a25,25,0,0,1-34.45-7.95l-39.74-63.6A25,25,0,0,1,356.4,138.19Z" transform="translate(-215.83 -0.09)" style="fill:#fff;stroke:#000;stroke-width:4px"/><circle cx="243.39" cy="179.98" r="20" style="fill:#c44646;stroke:#000;stroke-width:4px"/><circle cx="196.74" cy="209.13" r="20" style="fill:#c44646;stroke:#000;stroke-width:4px"/><circle cx="214.24" cy="133.34" r="20" style="fill:#c44646;stroke:#000;stroke-width:4px"/><circle cx="167.6" cy="162.48" r="20" style="fill:#c44646;stroke:#000;stroke-width:4px"/></svg>