<svg xmlns="http://www.w3.org/2000/svg" viewBox="0 0 252 252"><path d="M152.4,128h73.2A24.41,24.41,0,0,1,250,152.4v73.2A24.41,24.41,0,0,1,225.6,250H152.4A24.41,24.41,0,0,1,128,225.6V152.4A24.41,24.41,0,0,1,152.4,128Z" style="fill:#fff;stroke:#000;stroke-width:4px"/><circle cx="215.84" cy="215.84" r="19.52" style="fill:#c44646;stroke:#000;stroke-width:4px"/><circle cx="162.16" cy="215.84" r="19.52" style="fill:#c44646;stroke:#000;stroke-width:4px"/><circle cx="215.84" cy="162.16" r="19.52" style="fill:#c44646;stroke:#000;stroke-width:4px"/><circle cx="162.16" cy="162.16" r="19.52" style="fill:#c44646;stroke:#000;stroke-width:4px"/><path d="M26.4,128H99.6A24.41,24.41,0,0,1,124,152.4v73.2A24.41,24.41,0,0,1,99.6,250H26.4A24.41,24.41,0,0,1,2,225.6V152.4A24.41,24.41,0,0,1,26.4,128Z" style="fill:#fff;stroke:#000;stroke-width:4px"/><circle cx="89.84" cy="215.84" r="19.52" style="fill:#c44646;stroke:#000;stroke-width:4px"/><circle cx="36.16" cy="215.84" r="19.52" style="fill:#c44646;stroke:#000;stroke-width:4px"/><circle cx="89.84" cy="162.16" r="19.52" style="fill:#c44646;stroke:#000;stroke-width:4px"/><circle cx="36.16" cy="162.16" r="19.52" style="fill:#c44646;stroke:#000;stroke-width:4px"/><path d="M26.4,2H99.6A24.41,24.41,0,0,1,124,26.4V99.6A24.41,24.41,0,0,1,99.6,124H26.4A24.41,24.41,0,0,1,2,99.6V26.4A24.41,24.41,0,0,1,26.4,2Z" style="fill:#fff;stroke:#000;stroke-width:4px"/><circle cx="89.84" cy="89.84" r="19.52" style="fill:#c44646;stroke:#000;stroke-width:4px"/><circle cx="36.16" cy="89.84" r="19.52" style="fill:#c44646;stroke:#000;stroke-width:4px"/><circle cx="89.84" cy="36.16" r="19.52" style="fill:#c44646;stroke:#000;stroke-width:4px"/><circle cx="36.16" cy="36.16" r="19.52" style="fill:#c44646;stroke:#000;stroke-width:4px"/><path d="M152.4,2h73.2A24.41,24.41,0,0,1,250,26.4V99.6A24.41,24.41,0,0,1,225.6,124H152.4A24.41,24.41,0,0,1,128,99.6V26.4A24.41,24.41,0,0,1,152.4,2Z" style="fill:#fff;stroke:#000;stroke-width:4px"/><circle cx="215.84" cy="89.84" r="19.52" style="fill:#c44646;stroke:#000;stroke-width:4px"/><circle cx="162.16" cy="89.84" r="19.52" style="fill:#c44646;stroke:#000;stroke-width:4px"/><circle cx="215.84" cy="36.16" r="19.52" style="fill:#c44646;stroke:#000;stroke-width:4px"/><circle cx="162.16" cy="36.16" r="19.52" style="fill:#c44646;stroke:#000;stroke-width:4px"/></svg>