<svg xmlns="http://www.w3.org/2000/svg" viewBox="0 0 319.68 250.55"><path d="M326.29,14.78,397.2,2.28A24,24,0,0,1,425,21.75l12.51,70.9A24,24,0,0,1,418,120.46L347.13,133a24,24,0,0,1-27.8-19.47l-12.5-70.9A24,24,0,0,1,326.29,14.78Z" transform="translate(-180.19 0.09)" style="fill:#fff;stroke:#000;stroke-width:4px"/><circle cx="222.56" cy="89.12" r="19.2" style="fill:#5b5858;stroke:#000;stroke-width:4px"/><circle cx="161.39" cy="46.29" r="19.2" style="fill:#5b5858;stroke:#000;stroke-width:4px"/><path d="M242.83,128.46h72a24,24,0,0,1,24,24v72a24,24,0,0,1-24,24h-72a24,24,0,0,1-24-24v-72A24,24,0,0,1,242.83,128.46Z" transform="translate(-180.19 0.09)" style="fill:#fff;stroke:#000;stroke-width:4px"/><circle cx="125.04" cy="214.95" r="19.2" style="fill:#5b5858;stroke:#000;stroke-width:4px"/><circle cx="72.24" cy="162.15" r="19.2" style="fill:#5b5858;stroke:#000;stroke-width:4px"/><path d="M386.29,129.91l70.9-12.5A24,24,0,0,1,485,136.88l12.51,70.91A24,24,0,0,1,478,235.59l-70.91,12.5a24,24,0,0,1-27.8-19.47l-12.5-70.9A24,24,0,0,1,386.29,129.91Z" transform="translate(-180.19 0.09)" style="fill:#fff;stroke:#000;stroke-width:4px"/><circle cx="282.55" cy="204.25" r="19.2" style="fill:#5b5858;stroke:#000;stroke-width:4px"/><circle cx="221.38" cy="161.42" r="19.2" style="fill:#5b5858;stroke:#000;stroke-width:4px"/><path d="M206.19,5.41h72a24,24,0,0,1,24,24v72a24,24,0,0,1-24,24h-72a24,24,0,0,1-24-24v-72A24,24,0,0,1,206.19,5.41Z" transform="translate(-180.19 0.09)" style="fill:#fff;stroke:#000;stroke-width:4px"/><circle cx="88.4" cy="91.9" r="19.2" style="fill:#5b5858;stroke:#000;stroke-width:4px"/><circle cx="35.6" cy="39.1" r="19.2" style="fill:#5b5858;stroke:#000;stroke-width:4px"/></svg>